<svg id="add-info" xmlns="http://www.w3.org/2000/svg" width="29.382" height="29.382" viewBox="0 0 29.382 29.382">
  <path id="Path_31" data-name="Path 31" d="M17.446,0H3.367A3.365,3.365,0,0,0,0,3.367V22.342a3.365,3.365,0,0,0,3.367,3.367h8.068a10.689,10.689,0,0,1-1.028-4.591,10.581,10.581,0,0,1,.771-3.991.647.647,0,0,1-.159.012H4.9a1.224,1.224,0,1,1,0-2.448h6.121a1.211,1.211,0,0,1,1.077.661,10.806,10.806,0,0,1,3.036-3.11H4.9a1.224,1.224,0,1,1,0-2.448H15.915a1.228,1.228,0,0,1,1.224,1.224.647.647,0,0,1-.012.159,10.259,10.259,0,0,1,3.685-.759V3.367A3.365,3.365,0,0,0,17.446,0ZM9.794,7.345H4.9A1.224,1.224,0,1,1,4.9,4.9h4.9a1.224,1.224,0,0,1,0,2.448Z" fill="#ff4c2f"/>
  <path id="Path_32" data-name="Path 32" d="M18.764,10.5a8.264,8.264,0,1,0,8.264,8.264A8.273,8.273,0,0,0,18.764,10.5Zm3.367,9.488H19.988V22.13a1.224,1.224,0,0,1-2.448,0V19.988H15.4a1.224,1.224,0,1,1,0-2.448h2.142V15.4a1.224,1.224,0,1,1,2.448,0v2.142H22.13a1.224,1.224,0,0,1,0,2.448Z" transform="translate(2.355 2.355)" fill="#ff4c2f"/>
</svg>
