<svg xmlns="http://www.w3.org/2000/svg" width="62.609" height="60" viewBox="0 0 62.609 60">
  <g id="annual-leave" transform="translate(0 0)">
    <path id="Path_64" data-name="Path 64" d="M8.75,17.612v12.1a1.956,1.956,0,0,0,3.532,1.158l7.077-9.631Z" transform="translate(14.076 28.333)" fill="#ff4c2f"/>
    <path id="Path_65" data-name="Path 65" d="M61.787.363a1.957,1.957,0,0,0-2.04-.141L1.051,30.874a1.957,1.957,0,0,0,.271,3.587L17.64,40.038l34.75-29.713L25.5,42.723,52.847,52.07a2,2,0,0,0,.631.1,1.955,1.955,0,0,0,1.936-1.667L62.588,2.246a1.96,1.96,0,0,0-.8-1.883Z" transform="translate(0 0)" fill="#ff4c2f"/>
  </g>
</svg>
