<svg xmlns="http://www.w3.org/2000/svg" width="75.117" height="75.117" viewBox="0 0 75.117 75.117">
  <g id="approved-reduction" transform="translate(0 0)">
    <path id="Path_121" data-name="Path 121" d="M61.87,51.125V57.86L47.235,43.225,44.126,41.8A24.739,24.739,0,0,1,40.5,43.743L58.243,61.486H51.509v5.18H67.05V51.125Z" transform="translate(8.067 8.451)" fill="#ff4c2f"/>
    <path id="Path_122" data-name="Path 122" d="M49.624,46.869a28.127,28.127,0,0,1-3.108.907L45.35,51.014h-.907V66.555h-2.59V51.014H37.321l-.648.777V66.555h-2.59V55.029l-2.461,3.108-2.72-2.59V66.555h-2.59V53.086l-5.18-4.921V66.555h-2.59V45.7l-5.18-4.921V66.555h-2.59V38.321L5.59,33.4V66.555H3v2.59H52.215v-2.59h-2.59Z" transform="translate(-3 5.972)" fill="#ff4c2f"/>
    <path id="Path_123" data-name="Path 123" d="M32.015,35.592l-.13,2.72,2.59.13.13-2.849a5.068,5.068,0,0,0,.259-9.713l-2.59-.907a2.489,2.489,0,0,1-1.684-2.331,2.459,2.459,0,0,1,2.461-2.461h.259a2.459,2.459,0,0,1,2.461,2.461v.13l2.59-.13a5.13,5.13,0,0,0-3.885-4.921V15h-2.59v2.72a5.046,5.046,0,0,0-.389,9.713l2.59.907a2.489,2.489,0,0,1,1.684,2.331,2.459,2.459,0,0,1-2.461,2.461h-.259a2.459,2.459,0,0,1-2.461-2.461V29.246H28v1.425a5,5,0,0,0,4.015,4.921Z" transform="translate(4.378 0.541)" fill="#ff4c2f"/>
    <path id="Path_124" data-name="Path 124" d="M35.837,44.673A16.837,16.837,0,1,0,19,27.837,16.8,16.8,0,0,0,35.837,44.673Zm0-31.083A14.246,14.246,0,1,1,21.59,27.837,14.205,14.205,0,0,1,35.837,13.59Z" transform="translate(1.722 -0.639)" fill="#ff4c2f"/>
    <path id="Path_125" data-name="Path 125" d="M14.108,34.99a24.8,24.8,0,0,0,3.756,8.936l.389.648-1.3,2.849L21.1,51.567l2.849-1.3.648.389a24.8,24.8,0,0,0,8.936,3.756l.777.13,1.036,2.979h5.958l1.036-2.979.777-.13a24.8,24.8,0,0,0,8.936-3.756l.648-.389,2.849,1.3L59.7,47.423l-1.3-2.849.389-.648a24.8,24.8,0,0,0,3.756-8.936l.13-.777,2.979-1.036V27.219l-2.979-1.036-.13-.777a24.8,24.8,0,0,0-3.756-8.936l-.389-.648,1.3-2.849L55.552,8.828l-2.849,1.3-.648-.389a24.8,24.8,0,0,0-8.936-3.756l-.777-.13L41.176,3H35.219L34.183,5.979l-.777.13a24.8,24.8,0,0,0-8.936,3.756l-.648.389-2.849-1.3L16.828,13.1l1.3,2.849-.389.648a24.8,24.8,0,0,0-3.756,8.936l-.13.777L11,27.219v5.958l2.979,1.036ZM38.2,10.771A19.427,19.427,0,1,1,18.771,30.2,19.4,19.4,0,0,1,38.2,10.771Z" transform="translate(-0.639 -3)" fill="#ff4c2f"/>
  </g>
</svg>
