<svg xmlns="http://www.w3.org/2000/svg" width="114.93" height="114.93" viewBox="0 0 114.93 114.93">
  <g id="approved-reimbursements" transform="translate(-3 -1)">
    <path id="Path_180" data-name="Path 180" d="M96.112,1a21.053,21.053,0,0,0-9.074,40.059L81.577,55.8,52.354,32.424a3.644,3.644,0,0,0-4.431,0L3.817,67.711,9.24,70.565a11.449,11.449,0,0,1,18.494-2.852l11.993-8.244A11.476,11.476,0,0,1,58.8,47.1l3.4-3.4L64.9,46.411l-4.061,4.061a11.35,11.35,0,0,1-.379,9.183l6.823,4.873a13.389,13.389,0,0,1,22.8,6.538l6.375-3.356L84.726,58.321l5.9-15.931A21.06,21.06,0,1,0,96.112,1Zm5.747,17.24H98.027v-.28a1.639,1.639,0,0,0-1.636-1.636h-.557a1.635,1.635,0,0,0-.732,3.1l3.733,1.868a5.447,5.447,0,0,1-.808,10.079v4.109H94.2V31.37a5.457,5.457,0,0,1-3.831-5.189V25.9H94.2v.28a1.639,1.639,0,0,0,1.636,1.636h.557a1.635,1.635,0,0,0,.732-3.1L93.388,22.85A5.447,5.447,0,0,1,94.2,12.771V8.662h3.831v4.109a5.457,5.457,0,0,1,3.831,5.189Z" transform="translate(0.748)" fill="#ff4c2f"/>
    <path id="Path_181" data-name="Path 181" d="M24.913,55.829H50.783L55,53.61a13.342,13.342,0,0,1-2.235-15.422l-6.812-4.865a11.462,11.462,0,0,1-16.345-.151L17.613,41.416a11.334,11.334,0,0,1-.37,10.376Z" transform="translate(13.04 29.454)" fill="#ff4c2f"/>
    <path id="Path_182" data-name="Path 182" d="M31.662,33.785l5.923-5.923a7.617,7.617,0,1,0,1.739,4.8,7.466,7.466,0,0,0-.1-1.019L31.662,39.2l-5.185-5.185,2.709-2.709Z" transform="translate(19.226 21.972)" fill="#ff4c2f"/>
    <path id="Path_183" data-name="Path 183" d="M15.284,36a7.655,7.655,0,0,0-6.871,4.3l13.535,7.124A7.647,7.647,0,0,0,15.284,36Z" transform="translate(4.956 32.043)" fill="#ff4c2f"/>
    <path id="Path_184" data-name="Path 184" d="M36.584,47,4.741,73.817H93.848L62,47ZM22.477,69.986H18.646V66.155h3.831Zm7.662,0H26.308V66.155h3.831Zm7.662,0H33.97V66.155H37.8Z" transform="translate(1.594 42.113)" fill="#ff4c2f"/>
    <path id="Path_185" data-name="Path 185" d="M3,37.656V80.169L34.068,54.007Z" transform="translate(0 33.559)" fill="#ff4c2f"/>
    <path id="Path_186" data-name="Path 186" d="M56.073,42.767a9.554,9.554,0,1,0-15.579,8.2Z" transform="translate(31.127 30.212)" fill="#ff4c2f"/>
    <path id="Path_187" data-name="Path 187" d="M67.849,80.169V37.656L36.781,54.007ZM60.187,44.061h3.831v3.831H60.187Zm0,7.662h3.831v3.831H60.187Zm3.831,7.662v3.831H60.187V59.385Z" transform="translate(30.927 33.559)" fill="#ff4c2f"/>
    <path id="Path_188" data-name="Path 188" d="M5,5H31.817V8.831H5Z" transform="translate(1.831 3.662)" fill="#ff4c2f"/>
    <path id="Path_189" data-name="Path 189" d="M5,9H31.817v3.831H5Z" transform="translate(1.831 7.324)" fill="#ff4c2f"/>
    <path id="Path_190" data-name="Path 190" d="M5,13H31.817v3.831H5Z" transform="translate(1.831 10.986)" fill="#ff4c2f"/>
    <path id="Path_191" data-name="Path 191" d="M5,17H8.831v3.831H5Z" transform="translate(1.831 14.648)" fill="#ff4c2f"/>
    <path id="Path_192" data-name="Path 192" d="M17,17h3.831v3.831H17Z" transform="translate(12.817 14.648)" fill="#ff4c2f"/>
    <path id="Path_193" data-name="Path 193" d="M9,17h3.831v3.831H9Z" transform="translate(5.493 14.648)" fill="#ff4c2f"/>
    <path id="Path_194" data-name="Path 194" d="M13,17h3.831v3.831H13Z" transform="translate(9.155 14.648)" fill="#ff4c2f"/>
  </g>
</svg>
