<svg id="approved" xmlns="http://www.w3.org/2000/svg" width="69.733" height="69.657" viewBox="0 0 69.733 69.657">
  <g id="Group_191" data-name="Group 191">
    <path id="Path_126" data-name="Path 126" d="M67.147,338.213c-1.328-.1-4.084,1.4-4.849,1.775a85.761,85.761,0,0,0-8.876,5.167c-.173.115-.4.274-.577.375a10.449,10.449,0,0,1-3.565,1.458c-7.129,1.515-17.52,1.689-17.52,1.689l-.606.029a.861.861,0,1,1-.13-1.717l15.457-1.472a3.257,3.257,0,0,0-.664-6.48l-13.739-.173a15.262,15.262,0,0,1-3.334-.505c-8.861-2.583-13.855-.159-16.51.967a3.207,3.207,0,0,0-2.973-1.53l-5.932.39a3.48,3.48,0,0,0-3.319,3.68l.953,13.162a3.531,3.531,0,0,0,3.81,3.2l5.932-.39a3.151,3.151,0,0,0,2.713-1.905l26.035,1.126a13.934,13.934,0,0,0,8.168-1.385l.75-.39,19.671-11.517a3.24,3.24,0,0,0,1.689-2.641A2.675,2.675,0,0,0,67.147,338.213Zm-60.2,16.9a1.95,1.95,0,1,1,0-3.9,1.95,1.95,0,1,1,0,3.9Z" transform="translate(0 -288.582)" fill="#ff4c2f"/>
    <path id="Path_127" data-name="Path 127" d="M362.691,334.923a87.988,87.988,0,0,1,8.443-4.806,19.732,19.732,0,0,1,2.237-.981,3.323,3.323,0,0,0-3.218-.274c-2.208.88-6.278,2.843-8.356,3.969a.205.205,0,0,0-.029.087,6.036,6.036,0,0,1,.3,1.342,6.98,6.98,0,0,1,.014,1.1Q362.366,335.14,362.691,334.923Z" transform="translate(-309.557 -281.193)" fill="#ff4c2f"/>
    <path id="Path_128" data-name="Path 128" d="M351.915,318.293a3.317,3.317,0,0,0-3.175-.245c-1.371.534-4.416,1.53-5.773,2.251a6.781,6.781,0,0,1,1.544,1.328c.087-.058.173-.13.274-.188l1-.548C347.224,320.1,350.327,319,351.915,318.293Z" transform="translate(-293.47 -271.938)" fill="#ff4c2f"/>
    <path id="Path_129" data-name="Path 129" d="M302.02,21.019a10.81,10.81,0,1,0-15.052-9.944c0,.058.014.115.014.173A19.858,19.858,0,0,1,302.02,21.019Z" transform="translate(-245.552 -0.266)" fill="#ff4c2f"/>
    <path id="Path_130" data-name="Path 130" d="M179.669,135.37a15.7,15.7,0,1,0-15.7-15.7A15.7,15.7,0,0,0,179.669,135.37Zm-5.484-9.5c.144-.52.289-1.039.447-1.544.188-.592.346-.664.895-.39a8.548,8.548,0,0,0,2.959.88,3.543,3.543,0,0,0,1.934-.26,1.5,1.5,0,0,0,.361-2.641,4.677,4.677,0,0,0-1.1-.649,27,27,0,0,1-3.031-1.357,4.289,4.289,0,0,1-2.425-4.084,4.5,4.5,0,0,1,3.29-4.171c.808-.289.808-.289.823-1.126v-.851c.014-.635.13-.75.75-.765h.592c1.342,0,1.342,0,1.357,1.342,0,.953,0,.953.952,1.111a8.738,8.738,0,0,1,2.093.621.613.613,0,0,1,.4.808c-.173.577-.332,1.169-.52,1.746-.173.548-.346.621-.88.375a6.788,6.788,0,0,0-3.319-.664,2.293,2.293,0,0,0-.88.188,1.258,1.258,0,0,0-.318,2.237,5.889,5.889,0,0,0,1.443.808,26.97,26.97,0,0,1,2.627,1.183,4.71,4.71,0,0,1,1.515,7.173,4.98,4.98,0,0,1-2.612,1.674.735.735,0,0,0-.635.837c.014.462,0,.924,0,1.385a.578.578,0,0,1-.621.649c-.505.014-1,.014-1.5,0a.607.607,0,0,1-.649-.678c0-.332,0-.678-.014-1.01-.014-.75-.029-.779-.75-.895a9.587,9.587,0,0,1-2.67-.765C174.055,126.74,174,126.566,174.185,125.874Z" transform="translate(-140.303 -89)" fill="#ff4c2f"/>
  </g>
</svg>
