<svg xmlns="http://www.w3.org/2000/svg" width="54.586" height="55.95" viewBox="0 0 54.586 55.95">
  <g id="ava-credits" transform="translate(-4 -4.05)">
    <path id="Path_205" data-name="Path 205" d="M42.98,10.66l1.74-1a13.244,13.244,0,0,0-3.38-3.38l-1,1.74A11.406,11.406,0,0,1,42.98,10.66Z" fill="#ff4c2f"/>
    <path id="Path_206" data-name="Path 206" d="M25,17a9,9,0,1,0,9-9A9,9,0,0,0,25,17Zm6,3h4V18H33a2,2,0,0,1-2-2V14a2,2,0,0,1,2-2V10h2v2h2v2H33v2h2a2,2,0,0,1,2,2v2a2,2,0,0,1-2,2v2H33V22H31Z" fill="#ff4c2f"/>
    <path id="Path_207" data-name="Path 207" d="M33,6.05v-2a13.022,13.022,0,0,0-4.61,1.24L29.4,7.02A11.089,11.089,0,0,1,33,6.05Z" fill="#ff4c2f"/>
    <path id="Path_208" data-name="Path 208" d="M24.02,12.4l-1.73-1.01A13.022,13.022,0,0,0,21.05,16h2a11.089,11.089,0,0,1,.97-3.6Z" fill="#ff4c2f"/>
    <path id="Path_209" data-name="Path 209" d="M27.66,8.02l-1-1.74a13.244,13.244,0,0,0-3.38,3.38l1.74,1a11.406,11.406,0,0,1,2.64-2.64Z" fill="#ff4c2f"/>
    <path id="Path_210" data-name="Path 210" d="M35,27.95v2a13.022,13.022,0,0,0,4.61-1.24L38.6,26.98A11.089,11.089,0,0,1,35,27.95Z" fill="#ff4c2f"/>
    <path id="Path_211" data-name="Path 211" d="M23.05,18h-2a13.022,13.022,0,0,0,1.24,4.61l1.73-1.01a11.089,11.089,0,0,1-.97-3.6Z" fill="#ff4c2f"/>
    <path id="Path_212" data-name="Path 212" d="M28.39,28.71A13.022,13.022,0,0,0,33,29.95v-2a11.089,11.089,0,0,1-3.6-.97Z" fill="#ff4c2f"/>
    <path id="Path_213" data-name="Path 213" d="M43.98,21.6l1.73,1.01A13.022,13.022,0,0,0,46.95,18h-2a11.089,11.089,0,0,1-.97,3.6Z" fill="#ff4c2f"/>
    <path id="Path_214" data-name="Path 214" d="M44.95,16h2a13.022,13.022,0,0,0-1.24-4.61L43.98,12.4A11.089,11.089,0,0,1,44.95,16Z" fill="#ff4c2f"/>
    <path id="Path_215" data-name="Path 215" d="M40.34,25.98l1,1.74a13.244,13.244,0,0,0,3.38-3.38l-1.74-1a11.406,11.406,0,0,1-2.64,2.64Z" fill="#ff4c2f"/>
    <path id="Path_216" data-name="Path 216" d="M39.61,5.29A13.022,13.022,0,0,0,35,4.05v2a11.089,11.089,0,0,1,3.6.97Z" fill="#ff4c2f"/>
    <path id="Path_217" data-name="Path 217" d="M50.72,51.71,36.28,55.96A.863.863,0,0,1,36,56H28a.947.947,0,0,1-.49-.13l-9-5A1,1,0,0,1,19,49H31a1,1,0,0,0,1-1v-.5a1.008,1.008,0,0,0-.72-.96L15.86,42H10V56.28L21.16,60H35.83l15.5-5.47a1,1,0,0,0,.67-.95v-.91a1,1,0,0,0-1.28-.96Z" fill="#ff4c2f"/>
    <path id="Path_218" data-name="Path 218" d="M20,37v4.13l4,1.18V37a1,1,0,0,1,1-1h1.59L22,31.41,17.41,36H19A1,1,0,0,1,20,37Z" fill="#ff4c2f"/>
    <path id="Path_219" data-name="Path 219" d="M49.414,34H51a1,1,0,0,1,1,1V45h4V35a1,1,0,0,1,1-1h1.586L54,29.414Z" fill="#ff4c2f"/>
    <path id="Path_220" data-name="Path 220" d="M37,42V53.66l4-1.17V42a1,1,0,0,1,1-1h1.59L39,36.41,34.41,41H36A1,1,0,0,1,37,42Z" fill="#ff4c2f"/>
    <path id="Path_221" data-name="Path 221" d="M26.66,27.72l1-1.74a11.406,11.406,0,0,1-2.64-2.64l-1.74,1a13.244,13.244,0,0,0,3.38,3.38Z" fill="#ff4c2f"/>
    <path id="Path_222" data-name="Path 222" d="M8,27v6h4V27a1,1,0,0,1,1-1h1.586L10,21.414,5.414,26H7A1,1,0,0,1,8,27Z" fill="#ff4c2f"/>
    <rect id="Rectangle_71" data-name="Rectangle 71" width="4" height="20" transform="translate(4 39)" fill="#ff4c2f"/>
  </g>
</svg>
