<svg id="employee-net-salary" xmlns="http://www.w3.org/2000/svg" width="90.992" height="90.992" viewBox="0 0 90.992 90.992">
  <path id="Path_225" data-name="Path 225" d="M98.7,16.172h19.909a47.336,47.336,0,0,1,7.906-11.641,2.529,2.529,0,0,0,.586-2.879A2.658,2.658,0,0,0,124.646,0a15.394,15.394,0,0,0-9.49,3.092,9.829,9.829,0,0,1-6.5,2.239,9.829,9.829,0,0,1-6.5-2.239A15.394,15.394,0,0,0,92.656,0,2.659,2.659,0,0,0,90.2,1.653a2.529,2.529,0,0,0,.586,2.879A47.331,47.331,0,0,1,98.7,16.172Z" transform="translate(-73.996)" fill="#ff4c2f"/>
  <path id="Path_226" data-name="Path 226" d="M301,454.666V460a2.666,2.666,0,0,0,2.666,2.666h32.167A2.666,2.666,0,0,0,338.5,460v-5.332A2.666,2.666,0,0,0,335.833,452H303.666A2.666,2.666,0,0,0,301,454.666Z" transform="translate(-247.507 -371.671)" fill="#ff4c2f"/>
  <path id="Path_227" data-name="Path 227" d="M338.5,370v-5.332A2.666,2.666,0,0,0,335.833,362H303.666A2.666,2.666,0,0,0,301,364.666V370a2.666,2.666,0,0,0,2.666,2.666h32.167A2.666,2.666,0,0,0,338.5,370Z" transform="translate(-247.507 -297.666)" fill="#ff4c2f"/>
  <path id="Path_228" data-name="Path 228" d="M53.156,142.611c-5.225-5.118-9.49-9.455-10.343-16.279h2.506a2.666,2.666,0,0,0,0-5.332H23.992a2.666,2.666,0,0,0,0,5.332H26.5c-.853,6.824-5.118,11.161-10.343,16.279C8.584,150.022,0,158.445,0,177.692a13.266,13.266,0,0,0,13.329,12.8H48.475a7.907,7.907,0,0,1-.491-2.666V166.5a8.007,8.007,0,0,1,8-8H65.53C62.3,151.585,57.521,146.894,53.156,142.611ZM34.655,158.5A7.978,7.978,0,0,1,37.321,174v3.157a2.666,2.666,0,1,1-5.332,0V174a7.984,7.984,0,0,1-5.332-7.506,2.666,2.666,0,0,1,5.332,0,2.666,2.666,0,1,0,2.666-2.666,7.978,7.978,0,0,1-2.666-15.5V145.17a2.666,2.666,0,1,1,5.332,0v3.157a7.984,7.984,0,0,1,5.332,7.506,2.666,2.666,0,0,1-5.332,0,2.666,2.666,0,1,0-2.666,2.666Z" transform="translate(0 -99.496)" fill="#ff4c2f"/>
</svg>
