<svg xmlns="http://www.w3.org/2000/svg" width="36.091" height="56" viewBox="0 0 36.091 56">
  <g id="gross-salary" transform="translate(-92.455 -90)">
    <path id="Path_199" data-name="Path 199" d="M34.451,36.095H22.006l3.762-3.762a1.64,1.64,0,0,0-2.32-2.32l-3.762,3.761v-4.4a14.613,14.613,0,0,0,8.8-4.164,14.765,14.765,0,1,0-20.882,0,14.609,14.609,0,0,0,8.8,4.164v4.4l-3.762-3.761a1.64,1.64,0,0,0-2.32,2.32l3.761,3.762H1.641a1.641,1.641,0,1,0,0,3.281H3.577l.656,3.39H31.858l.656-3.39h1.936a1.641,1.641,0,0,0,0-3.281ZM13.6,18.248a1.636,1.636,0,0,1,2.31.2c.865,1.033,1.859,1.458,2.692,1.142a1.64,1.64,0,0,0-.561-3.182,4.927,4.927,0,0,1-4.922-4.921,4.8,4.8,0,0,1,3.281-4.6V4.925a1.64,1.64,0,1,1,3.281,0V6.891A6.329,6.329,0,0,1,22.1,8.345,1.641,1.641,0,1,1,19.821,10.7a2.249,2.249,0,0,0-2.413-.729,1.641,1.641,0,0,0,.638,3.153,4.922,4.922,0,0,1,1.685,9.546c-.015.006-.03,0-.045.008v1.929a1.64,1.64,0,1,1-3.281,0v-1.94a6.747,6.747,0,0,1-3-2.111,1.64,1.64,0,0,1,.2-2.312Zm0,0" transform="translate(92.455 90)" fill="#ff4c2f"/>
    <path id="Path_200" data-name="Path 200" d="M46.408,429.641a1.641,1.641,0,0,0,1.609,1.318H67.7a1.641,1.641,0,0,0,1.609-1.318l1.705-8.634H44.7Zm0,0" transform="translate(52.642 -284.96)" fill="#ff4c2f"/>
  </g>
</svg>
