<svg id="gross-earnings" xmlns="http://www.w3.org/2000/svg" width="87.549" height="56" viewBox="0 0 87.549 56">
  <g id="Group_193" data-name="Group 193" transform="translate(11.831 12.62)">
    <g id="Group_192" data-name="Group 192">
      <path id="Path_131" data-name="Path 131" d="M131.952,144H127.83v26.935a7.759,7.759,0,0,1-7.71,7.769H60v4.811a3.851,3.851,0,0,0,3.766,3.865h68.185a3.851,3.851,0,0,0,3.766-3.865v-35.69A3.817,3.817,0,0,0,131.952,144Z" transform="translate(-60 -144)" fill="#ff4c2f"/>
    </g>
  </g>
  <g id="Group_195" data-name="Group 195" transform="translate(6.231 6.014)">
    <g id="Group_194" data-name="Group 194" transform="translate(0 0)">
      <path id="Path_132" data-name="Path 132" d="M33.769,110.5a2.169,2.169,0,1,0,2.169,2.169A2.163,2.163,0,0,0,33.769,110.5Z" transform="translate(-31.6 -110.5)" fill="#ff4c2f"/>
    </g>
  </g>
  <g id="Group_197" data-name="Group 197" transform="translate(65.129 32.89)">
    <g id="Group_196" data-name="Group 196">
      <path id="Path_133" data-name="Path 133" d="M332.469,246.8a2.169,2.169,0,1,0,0,4.338,2.188,2.188,0,0,0,2.169-2.169A2.163,2.163,0,0,0,332.469,246.8Z" transform="translate(-330.3 -246.8)" fill="#ff4c2f"/>
    </g>
  </g>
  <g id="Group_199" data-name="Group 199" transform="translate(21.414 5.284)">
    <g id="Group_198" data-name="Group 198">
      <path id="Path_134" data-name="Path 134" d="M125.045,106.8a16.445,16.445,0,1,0,16.445,16.445A16.46,16.46,0,0,0,125.045,106.8Zm1.775,28.118v.789a1.972,1.972,0,0,1-3.944,0v-.946a7.136,7.136,0,0,1-4.989-6.842v-.039a1.935,1.935,0,0,1,1.932-1.932,1.978,1.978,0,0,1,1.972,1.972,3.254,3.254,0,1,0,3.273-3.253,7.191,7.191,0,0,1-2.189-14.039v-.749a1.972,1.972,0,0,1,3.944,0v.592a7.175,7.175,0,0,1,5.462,7,2,2,0,0,1-2.011,1.972,1.978,1.978,0,0,1-1.972-1.972,3.257,3.257,0,0,0-3.253-3.253h-.059a3.254,3.254,0,0,0,.079,6.507,7.206,7.206,0,0,1,1.755,14.2Z" transform="translate(-108.6 -106.8)" fill="#ff4c2f"/>
    </g>
  </g>
  <g id="Group_201" data-name="Group 201" transform="translate(0 0)">
    <g id="Group_200" data-name="Group 200">
      <path id="Path_135" data-name="Path 135" d="M71.952,80H3.766A3.851,3.851,0,0,0,0,83.865v35.69a3.817,3.817,0,0,0,3.766,3.825H71.952a3.83,3.83,0,0,0,3.766-3.825V83.865A3.851,3.851,0,0,0,71.952,80ZM8.4,94.315A6.113,6.113,0,1,1,14.513,88.2,6.118,6.118,0,0,1,8.4,94.315Zm29.459,27.8A20.4,20.4,0,1,1,58.247,101.71,20.394,20.394,0,0,1,37.859,122.118Zm29.439-.946a6.113,6.113,0,1,1,6.113-6.113A6.118,6.118,0,0,1,67.3,121.172Z" transform="translate(0 -80)" fill="#ff4c2f"/>
    </g>
  </g>
</svg>
