<svg id="gross-earnings-money" xmlns="http://www.w3.org/2000/svg" width="90.992" height="90.992" viewBox="0 0 90.992 90.992">
  <g id="Group_253" data-name="Group 253">
    <path id="Path_229" data-name="Path 229" d="M295.847,271A27.692,27.692,0,0,1,271,295.846v17.942A45.531,45.531,0,0,0,313.788,271H295.847Z" transform="translate(-222.796 -222.795)" fill="#ff4c2f"/>
    <path id="Path_230" data-name="Path 230" d="M42.868,143.674A27.646,27.646,0,0,1,24.192,98.588L11.507,85.9a45.533,45.533,0,0,0,31.361,75.712Z" transform="translate(0 -70.623)" fill="#ff4c2f"/>
    <path id="Path_231" data-name="Path 231" d="M98.588,24.192a27.646,27.646,0,0,1,45.085,18.676h17.941A45.533,45.533,0,0,0,85.9,11.507Z" transform="translate(-70.623)" fill="#ff4c2f"/>
  </g>
  <path id="Path_232" data-name="Path 232" d="M215.147,162.465a25.9,25.9,0,0,1-6.58-3.058,2.212,2.212,0,0,1-.507-2.1,3.02,3.02,0,0,1,1.989-2.381,5.32,5.32,0,0,1,4.812.707,2.668,2.668,0,0,0,3.2-4.274,10.639,10.639,0,0,0-3.974-1.782v-1.086a2.668,2.668,0,1,0-5.336,0v1.26c-.079.022-.157.042-.237.066a8.3,8.3,0,0,0-5.694,6.5,7.4,7.4,0,0,0,2.457,7.289c1.7,1.33,4.042,2.457,8.1,3.89a3.439,3.439,0,0,1,2.49,4.033,4.5,4.5,0,0,1-4.461,3.792c-2.578.017-3.383-.11-5.364-1.407a2.668,2.668,0,0,0-2.921,4.466,11.883,11.883,0,0,0,5.635,2.172v1.219a2.668,2.668,0,1,0,5.336,0V180.3a9.558,9.558,0,0,0,3.954-2.2,10.011,10.011,0,0,0,3.083-5.686,8.791,8.791,0,0,0-5.973-9.949Z" transform="translate(-165.991 -119.882)" fill="#ff4c2f"/>
</svg>
