<svg id="hr-icon" xmlns="http://www.w3.org/2000/svg" width="27.825" height="28.964" viewBox="0 0 27.825 28.964">
  <path id="Path_21" data-name="Path 21" d="M43.514,6.034A.73.73,0,0,0,44.537,5.9a11.258,11.258,0,0,1,17.913,0,.73.73,0,1,0,1.16-.886,12.718,12.718,0,0,0-20.234,0A.73.73,0,0,0,43.514,6.034Z" transform="translate(-39.581 0)" fill="#ff4c2f"/>
  <path id="Path_22" data-name="Path 22" d="M228.037,80.7a2.279,2.279,0,1,0,2.279-2.279A2.282,2.282,0,0,0,228.037,80.7Z" transform="translate(-206.368 -70.77)" fill="#ff4c2f"/>
  <path id="Path_23" data-name="Path 23" d="M217.86,130.986l-.579-.178a.682.682,0,0,0-.608.106l-1.145.857-1.145-.857a.682.682,0,0,0-.608-.106l-.579.178a2.256,2.256,0,0,0-1.545,2.143v3.445a.679.679,0,0,0,.112.374l1.155,1.758v4.618a.681.681,0,0,0,.681.681h3.857a.681.681,0,0,0,.681-.681v-4.618l1.155-1.758a.681.681,0,0,0,.112-.374V133.13A2.256,2.256,0,0,0,217.86,130.986Z" transform="translate(-191.58 -118.025)" fill="#ff4c2f"/>
  <path id="Path_24" data-name="Path 24" d="M24.5,82.975A2.279,2.279,0,1,0,22.224,80.7,2.282,2.282,0,0,0,24.5,82.975Z" transform="translate(-20.626 -70.77)" fill="#ff4c2f"/>
  <path id="Path_25" data-name="Path 25" d="M12.048,130.986l-.579-.178a.682.682,0,0,0-.608.106l-1.145.857-1.145-.857a.682.682,0,0,0-.608-.106l-.579.178a2.256,2.256,0,0,0-1.545,2.143v3.445a.679.679,0,0,0,.112.374l1.155,1.758v4.618a.681.681,0,0,0,.681.681h3.857a.681.681,0,0,0,.681-.681v-4.618l1.155-1.758a.681.681,0,0,0,.112-.374V133.13A2.256,2.256,0,0,0,12.048,130.986Z" transform="translate(-5.839 -118.025)" fill="#ff4c2f"/>
  <path id="Path_26" data-name="Path 26" d="M124.237,41.649a2.94,2.94,0,1,0-2.94,2.94A2.943,2.943,0,0,0,124.237,41.649Z" transform="translate(-107.385 -34.934)" fill="#ff4c2f"/>
  <path id="Path_27" data-name="Path 27" d="M105.361,111.1l0,0-.839-.257a.261.261,0,0,0-.321.16l-1.764,4.841a.319.319,0,0,1-.6,0L100.069,111a.261.261,0,0,0-.245-.172c-.025,0-.915.269-.915.269a2.6,2.6,0,0,0-1.788,2.474v5.12a.261.261,0,0,0,.043.143l1.841,2.8v7.088a.261.261,0,0,0,.261.261H105a.261.261,0,0,0,.261-.261v-7.088l1.841-2.8a.261.261,0,0,0,.043-.143v-5.134a2.588,2.588,0,0,0-1.782-2.459Z" transform="translate(-88.22 -100.018)" fill="#ff4c2f"/>
  <path id="Path_28" data-name="Path 28" d="M141.894,111.451a.388.388,0,0,0-.287-.119h-.8a.388.388,0,0,0-.287.119.373.373,0,0,0-.049.439l.43.648-.2,1.7.4,1.054a.121.121,0,0,0,.227,0l.4-1.054-.2-1.7.43-.648A.373.373,0,0,0,141.894,111.451Z" transform="translate(-127.292 -100.475)" fill="#ff4c2f"/>
</svg>
