<svg xmlns="http://www.w3.org/2000/svg" width="61.764" height="61" viewBox="0 0 61.764 61">
  <g id="increase-icon" transform="translate(0 0)">
    <g id="Group_86" data-name="Group 86">
      <path id="Path_53" data-name="Path 53" d="M45.8,3.168A15.982,15.982,0,0,0,29.837,19.132c0,9.258,10.078,19.953,13.582,23.392l-6.061,7.658L28.052,37.719,19.331,54.092l-5.424-5.384L7.9,60.549H0v3.619H10.118l4.766-9.39,5.352,5.312,8.328-15.635,8.709,11.664L47.554,43.13c2.687-2.556,14.21-14.1,14.21-24A15.982,15.982,0,0,0,45.8,3.168Zm1.343,22.8V27.78h-2.3V26.053a9.582,9.582,0,0,1-4.185-1.14l1.238-2.8a7.82,7.82,0,0,0,3.762,1.042c1.091,0,1.482-.228,1.482-.619,0-1.433-6.3-.277-6.3-4.527,0-1.84,1.335-3.387,4.006-3.762V12.472h2.3v1.743a8.506,8.506,0,0,1,3.306.945l-1.156,2.785a7.032,7.032,0,0,0-3.175-.847c-1.124,0-1.482.326-1.482.717,0,1.368,6.3.228,6.3,4.429C50.938,24,49.668,25.532,47.144,25.972Z" transform="translate(0 -3.168)" fill="#ff4c2f"/>
    </g>
  </g>
</svg>
