<svg id="maternity-leave" xmlns="http://www.w3.org/2000/svg" width="38.208" height="60.701" viewBox="0 0 38.208 60.701">
  <g id="_004---Pregnant-Woman" data-name="004---Pregnant-Woman" transform="translate(0)">
    <path id="Shape" d="M24.755,0H19.589a1.084,1.084,0,0,0-.929.527A24.064,24.064,0,0,1,14.142,6a28.14,28.14,0,0,0,5.266.5C23.564,6.5,24.529,2.1,24.755,0Z" transform="translate(1.187)" fill="#ff4c2f"/>
    <path id="Shape-2" data-name="Shape" d="M12.082,18.092a24.954,24.954,0,0,1,4.376,1.5c.9.37,1.825.752,2.736,1.056a19.243,19.243,0,0,0,4.1.567,37.6,37.6,0,0,1,5.082.625A57.768,57.768,0,0,1,29.41,0H27.468c-.307,3.494-2.123,8.672-7.533,8.672A29.994,29.994,0,0,1,12.347,7.7a12.14,12.14,0,0,1-1.777.9,4.227,4.227,0,0,0-2.7,4.227A5.86,5.86,0,0,0,12.082,18.092Z" transform="translate(0.66)" fill="#ff4c2f"/>
    <path id="Shape-3" data-name="Shape" d="M10.228,41.43c.409.341.835.7,1.276,1.069.441-.373.867-.727,1.276-1.069,3.261-2.721,5.228-4.364,5.228-6.441A2.8,2.8,0,0,0,15.3,32a3.35,3.35,0,0,0-2.827,1.747,1.09,1.09,0,0,1-.965.591H11.5a1.084,1.084,0,0,1-.96-.591A3.352,3.352,0,0,0,7.71,32,2.8,2.8,0,0,0,5,34.99c0,2.077,1.967,3.72,5.228,6.441Z" transform="translate(0.419 2.686)" fill="#ff4c2f"/>
    <path id="Shape-4" data-name="Shape" d="M8.094,49.93a23.061,23.061,0,0,0,13.465,2.427,1.084,1.084,0,0,1,.241,2.155,27.064,27.064,0,0,1-3,.167A25,25,0,0,1,8.072,52.35a20.683,20.683,0,0,0-1.383,5.283,1.084,1.084,0,0,0,1.077,1.221H35.317A1.084,1.084,0,0,0,36.38,57.56c-.858-4.193-2.844-12.675-5.916-18.816a19.219,19.219,0,0,1-1.734-8.455,67.145,67.145,0,0,1-17.32-6.252,1.093,1.093,0,0,1-.247-.185A7.279,7.279,0,0,0,6.5,22H6.487C2.2,25,0,29.363,0,35.007,0,43.615,4.4,47.873,8.094,49.93ZM8.13,30.672A5.211,5.211,0,0,1,11.923,32.3a5.211,5.211,0,0,1,3.794-1.631,4.97,4.97,0,0,1,4.878,5.157c0,3.091-2.385,5.086-6.007,8.106-.616.514-1.27,1.061-1.959,1.651a1.084,1.084,0,0,1-1.409,0c-.688-.59-1.343-1.137-1.959-1.651-3.625-3.02-6.009-5.014-6.009-8.106A4.97,4.97,0,0,1,8.13,30.672Z" transform="translate(0 1.847)" fill="#ff4c2f"/>
    <path id="Shape-5" data-name="Shape" d="M36.492,31.344c1.432-6.612,1.14-15.541.944-21.537-.056-1.729-.105-3.23-.105-4.388a6.179,6.179,0,0,0-1.706-4.183A3.794,3.794,0,0,0,32.941,0H31.688a54.793,54.793,0,0,0-.941,22.521,11.475,11.475,0,0,1,2.9,1.542,1.084,1.084,0,1,1-1.3,1.734c-2.569-1.927-6.07-2.188-9.159-2.419a20.446,20.446,0,0,1-4.624-.671c-.982-.325-1.951-.725-2.878-1.109a24.389,24.389,0,0,0-3.87-1.365,1.151,1.151,0,0,1-.274-.055,4.615,4.615,0,0,0-2.991.3,2.789,2.789,0,0,0-1.312,1.3,9.571,9.571,0,0,1,4.718,2.259C21.788,29.375,33.212,30.977,36.492,31.344Z" transform="translate(0.608 0)" fill="#ff4c2f"/>
  </g>
</svg>
