<svg xmlns="http://www.w3.org/2000/svg" width="91.489" height="127.497" viewBox="0 0 91.489 127.497">
  <path id="overtime" d="M87.753,120.027H81.486V98.718a29.9,29.9,0,0,0-8.979-21.293L58.482,63.749,72.507,50.072a29.9,29.9,0,0,0,8.979-21.293V7.471h6.267a3.735,3.735,0,0,0,0-7.471H3.735a3.735,3.735,0,1,0,0,7.471H10V28.779a29.9,29.9,0,0,0,8.979,21.293L33.008,63.749,18.983,77.425A29.9,29.9,0,0,0,10,98.718v21.309H3.735a3.735,3.735,0,1,0,0,7.471H87.753a3.735,3.735,0,0,0,0-7.471ZM36.862,22.855a9.631,9.631,0,0,1,5.147-2.694V15.738a3.735,3.735,0,1,1,7.471,0V20h2.266a3.735,3.735,0,0,1,0,7.471h-8a2.266,2.266,0,1,0,0,4.533h4A9.738,9.738,0,0,1,54.627,48.63a9.647,9.647,0,0,1-5.148,2.694v4.423a3.735,3.735,0,1,1-7.471,0V51.48H39.744a3.735,3.735,0,1,1,0-7.471h8a2.265,2.265,0,0,0,2.265-2.266,2.269,2.269,0,0,0-2.265-2.265h-4a9.735,9.735,0,0,1-6.883-16.622Zm8.882,52.629a3.735,3.735,0,1,1,3.735-3.735A3.737,3.737,0,0,1,45.744,75.485Zm3.735,10.27a3.735,3.735,0,1,1-3.735-3.735A3.737,3.737,0,0,1,49.48,85.755Zm23.993,34.272H18.017c-.006-.088-.013-.177-.013-.267a16.587,16.587,0,0,1,9.223-14.921l16.846-8.425a3.741,3.741,0,0,1,3.342,0l16.846,8.425a16.588,16.588,0,0,1,9.224,14.921c0,.089-.008.179-.013.267Zm0,0" transform="translate(0 0)" fill="#ff4c2f"/>
</svg>
