<svg xmlns="http://www.w3.org/2000/svg" width="66.829" height="75.717" viewBox="0 0 66.829 75.717">
  <g id="pending" transform="translate(-30.05 0)">
    <path id="Path_139" data-name="Path 139" d="M231.326,242a19.964,19.964,0,1,0,19.964,19.964A19.987,19.987,0,0,0,231.326,242Zm2.958,20.556a2.218,2.218,0,0,1-2.218,2.218h-6.708a2.218,2.218,0,0,1,0-4.437h4.49v-4.531a2.218,2.218,0,0,1,4.437,0Z" transform="translate(-154.499 -206.212)" fill="#ff4c2f"/>
    <path id="Path_140" data-name="Path 140" d="M52.8,60.013c-.416.076.142.025-11.532.04a2.218,2.218,0,1,1,0-4.437c11.854,0,11.13,0,11.159,0a24.337,24.337,0,0,1,.427-4.423H41.274a2.218,2.218,0,1,1,0-4.437H54.146A24.433,24.433,0,0,1,76.907,31.352V8.8A13.18,13.18,0,0,1,80.263,0H41.138A11.1,11.1,0,0,0,30.05,11.088v62.37a2.22,2.22,0,0,0,3.821,1.534l2.838-2.964,3,3a2.22,2.22,0,0,0,3.137,0l2.841-2.839,2.869,2.845a2.219,2.219,0,0,0,3.125,0l2.915-2.89,2.916,2.89a2.217,2.217,0,0,0,3.122,0l.565-.559a24.411,24.411,0,0,1-8.4-14.463ZM48.417,26.755a2.22,2.22,0,0,1,3.072-.642,4.735,4.735,0,0,0,3.863.559,2.085,2.085,0,0,0,1.192-1.563c.149-1.325-1.636-1.985-2.859-2.467-1.535-.606-3.446-1.362-4.536-3.327A5.578,5.578,0,0,1,52.2,11.529V11.2a2.218,2.218,0,1,1,4.437,0v.183a6.124,6.124,0,0,1,2.508,1.353A2.218,2.218,0,1,1,56.141,16a2.651,2.651,0,0,0-2.622-.192,1.15,1.15,0,0,0-.488,1.362c.621,1.124,3.377,1.364,5.51,3.027a6.129,6.129,0,0,1-1.9,10.736v.453a2.218,2.218,0,1,1-4.437,0V31.1a9.475,9.475,0,0,1-3.146-1.272A2.22,2.22,0,0,1,48.417,26.755ZM41.282,37.87H52.373a2.218,2.218,0,1,1,0,4.437H41.282a2.218,2.218,0,0,1,0-4.437Z" transform="translate(0)" fill="#ff4c2f"/>
    <path id="Path_141" data-name="Path 141" d="M383.742,0A7.842,7.842,0,0,0,375.9,7.842v23.4h13.465a2.218,2.218,0,0,0,2.218-2.218V7.842A7.842,7.842,0,0,0,383.742,0Z" transform="translate(-294.704 0)" fill="#ff4c2f"/>
  </g>
</svg>
