<svg id="pending-deductions" xmlns="http://www.w3.org/2000/svg" width="74.843" height="74.843" viewBox="0 0 74.843 74.843">
  <path id="Path_152" data-name="Path 152" d="M2.193,231H0v8.332a2.193,2.193,0,0,0,2.193,2.193h8.478v-2.193A8.468,8.468,0,0,0,2.193,231Z" transform="translate(0 -197.233)" fill="#ff4c2f"/>
  <path id="Path_153" data-name="Path 153" d="M59.787,2.193V0H15.056V2.193A12.983,12.983,0,0,1,2.193,15.056H0V29.382H2.193A12.858,12.858,0,0,1,15.056,42.1v2.193h4.175l9.881-14.061a11.548,11.548,0,1,1,16.619,0l9.885,14.062h4.17V42.1A12.858,12.858,0,0,1,72.65,29.382h2.193V15.056H72.65A12.983,12.983,0,0,1,59.787,2.193ZM19.348,24.317a2.192,2.192,0,1,1,1.513-2.526,2.19,2.19,0,0,1-1.513,2.526Zm37.212.053A2.193,2.193,0,1,1,58.314,22a2.193,2.193,0,0,1-1.754,2.367Z" fill="#ff4c2f"/>
  <path id="Path_154" data-name="Path 154" d="M439,2.193a8.594,8.594,0,0,0,8.478,8.478h2.193V2.193A2.193,2.193,0,0,0,447.478,0H439Z" transform="translate(-374.828)" fill="#ff4c2f"/>
  <path id="Path_155" data-name="Path 155" d="M2.193,10.671a8.594,8.594,0,0,0,8.478-8.478V0H2.193A2.193,2.193,0,0,0,0,2.193v8.478Z" fill="#ff4c2f"/>
  <path id="Path_156" data-name="Path 156" d="M439,239.332v2.193h8.478a2.193,2.193,0,0,0,2.193-2.193V231h-2.193A8.468,8.468,0,0,0,439,239.332Z" transform="translate(-374.828 -197.233)" fill="#ff4c2f"/>
  <path id="Path_157" data-name="Path 157" d="M215.961,108.908l3.915,5.569a7.163,7.163,0,1,0-11.425,0l3.915-5.569A2.193,2.193,0,0,1,215.961,108.908Z" transform="translate(-176.741 -87.944)" fill="#ff4c2f"/>
  <path id="Path_158" data-name="Path 158" d="M69.88,190.227a2.193,2.193,0,0,0-3.587,0c-.017.024-30.513,43.552-29.975,42.787a2.193,2.193,0,0,0,1.794,3.454H98.07a2.193,2.193,0,0,0,1.794-3.454C98.07,230.463,67.957,187.492,69.88,190.227Zm-1.156,36.644a2.192,2.192,0,1,1,1.513-2.526A2.191,2.191,0,0,1,68.724,226.871Zm1.555-10.284a2.193,2.193,0,0,1-4.385,0v-15.2a2.193,2.193,0,1,1,4.385,0Z" transform="translate(-30.665 -161.625)" fill="#ff4c2f"/>
</svg>
