<svg xmlns="http://www.w3.org/2000/svg" width="118.883" height="118.883" viewBox="0 0 118.883 118.883">
  <g id="pending-reimbursements" transform="translate(-1 -3)">
    <path id="Path_163" data-name="Path 163" d="M62.2,56.327l3.045-12.94a13.809,13.809,0,0,1-3.864-.888L58.342,55.4a7.846,7.846,0,0,0-4.908,1.878l-6.285-4.452-1.793,3.586L51.13,60.5A7.922,7.922,0,1,0,62.2,56.327Z" transform="translate(43.53 38.764)" fill="#ff4c2f"/>
    <path id="Path_164" data-name="Path 164" d="M9,32.935a13.879,13.879,0,0,1,11.73,11.73h2.14a5.951,5.951,0,0,1,5.944-5.944,9.913,9.913,0,0,1,9.067,5.944h4.2A21.743,21.743,0,0,1,42.079,9H20.73A13.879,13.879,0,0,1,9,20.73Z" transform="translate(7.851 5.888)" fill="#ff4c2f"/>
    <path id="Path_165" data-name="Path 165" d="M9,9v7.725A9.938,9.938,0,0,0,16.725,9Z" transform="translate(7.851 5.888)" fill="#ff4c2f"/>
    <path id="Path_166" data-name="Path 166" d="M59.654,9H38.305a21.743,21.743,0,0,1,0,35.665H59.654a13.879,13.879,0,0,1,11.73-11.73V20.73A13.879,13.879,0,0,1,59.654,9Z" transform="translate(36.611 5.888)" fill="#ff4c2f"/>
    <path id="Path_167" data-name="Path 167" d="M58.826,9H51.1a9.938,9.938,0,0,0,7.725,7.725Z" transform="translate(49.169 5.888)" fill="#ff4c2f"/>
    <path id="Path_168" data-name="Path 168" d="M9,29H22.87v3.963H9Z" transform="translate(7.851 25.516)" fill="#ff4c2f"/>
    <path id="Path_169" data-name="Path 169" d="M9,33H22.87v3.963H9Z" transform="translate(7.851 29.442)" fill="#ff4c2f"/>
    <path id="Path_170" data-name="Path 170" d="M24,29H85.423v3.963H24Z" transform="translate(22.572 25.516)" fill="#ff4c2f"/>
    <path id="Path_171" data-name="Path 171" d="M9,30.826h7.725A9.938,9.938,0,0,0,9,23.1Z" transform="translate(7.851 19.727)" fill="#ff4c2f"/>
    <path id="Path_172" data-name="Path 172" d="M73.479,47.8H33.613a9.875,9.875,0,0,1,2.219,6.224V57.7H31.87V54.019a5.929,5.929,0,0,0-2.647-4.946l-3.3-2.2V31.944A5.951,5.951,0,0,0,19.981,26,1.983,1.983,0,0,0,18,27.981v27.08a17.958,17.958,0,0,0,3.566,10.7L28.9,75.535H66.31L71.6,64.962a17.911,17.911,0,0,0,1.882-7.975Z" transform="translate(16.684 22.572)" fill="#ff4c2f"/>
    <path id="Path_173" data-name="Path 173" d="M62.789,31.1V42.789H51.1A9.907,9.907,0,1,0,62.789,31.1Z" transform="translate(49.169 27.578)" fill="#ff4c2f"/>
    <path id="Path_174" data-name="Path 174" d="M24,33H85.423v3.963H24Z" transform="translate(22.572 29.442)" fill="#ff4c2f"/>
    <path id="Path_175" data-name="Path 175" d="M63.609,53H23.981A1.983,1.983,0,0,0,22,54.981v13.87H65.591V54.981A1.983,1.983,0,0,0,63.609,53Z" transform="translate(20.609 49.069)" fill="#ff4c2f"/>
    <path id="Path_176" data-name="Path 176" d="M3,3V30.739h7.926V14.888H6.963V10.926H113.958v3.963h-3.963V30.739h7.926V3Z" transform="translate(1.963)" fill="#ff4c2f"/>
    <path id="Path_177" data-name="Path 177" d="M58.826,23.1A9.938,9.938,0,0,0,51.1,30.826h7.725Z" transform="translate(49.169 19.727)" fill="#ff4c2f"/>
    <path id="Path_178" data-name="Path 178" d="M23,26.832A17.832,17.832,0,1,0,40.832,9,17.853,17.853,0,0,0,23,26.832ZM46.777,22.58v.289H42.814V22.58a1.7,1.7,0,0,0-1.692-1.692h-.577a1.692,1.692,0,0,0-.757,3.206l3.862,1.932a5.634,5.634,0,0,1-.836,10.426V40.7H38.851v-4.25a5.645,5.645,0,0,1-3.963-5.368V30.8h3.963v.289a1.7,1.7,0,0,0,1.692,1.692h.577a1.692,1.692,0,0,0,.757-3.206l-3.862-1.932a5.634,5.634,0,0,1,.836-10.426v-4.25h3.963v4.25A5.645,5.645,0,0,1,46.777,22.58Z" transform="translate(21.591 5.888)" fill="#ff4c2f"/>
    <path id="Path_179" data-name="Path 179" d="M32.932,45.469,16.36,62.039a9.939,9.939,0,1,0,2.8,2.8L35.038,48.97A21.738,21.738,0,0,1,32.932,45.469Z" transform="translate(0 41.679)" fill="#ff4c2f"/>
  </g>
</svg>
