<svg id="recurring-deductions" xmlns="http://www.w3.org/2000/svg" width="75.159" height="75.159" viewBox="0 0 75.159 75.159">
  <path id="Path_159" data-name="Path 159" d="M160.634,19.964a19.817,19.817,0,1,0-19.817,19.817A19.965,19.965,0,0,0,160.634,19.964Zm-19.3-2.142c2.279.548,6.092,1.464,6.092,6.546a6.6,6.6,0,0,1-4.4,6.2v2.608h-4.4V30.568a6.6,6.6,0,0,1-4.4-6.2h4.4a2.2,2.2,0,1,0,4.4,0c0-1.445-.279-1.677-2.716-2.262-2.279-.548-6.092-1.464-6.092-6.546a6.6,6.6,0,0,1,4.4-6.2V6.753h4.4V9.36a6.6,6.6,0,0,1,4.4,6.2h-4.4a2.2,2.2,0,1,0-4.4,0C138.615,17.005,138.895,17.237,141.331,17.822Z" transform="translate(-103.238)" fill="#ff4c2f"/>
  <path id="Path_160" data-name="Path 160" d="M200.4,301v15.413H196l8.808,15.56,8.808-15.56h-4.4V301Z" transform="translate(-167.228 -256.815)" fill="#ff4c2f"/>
  <path id="Path_161" data-name="Path 161" d="M13.358,226.413V211H4.551v15.413H0l8.954,15.413,8.808-15.413Z" transform="translate(0 -180.026)" fill="#ff4c2f"/>
  <path id="Path_162" data-name="Path 162" d="M404.211,211H395.4v15.413H391l8.808,15.413,8.954-15.413h-4.551Z" transform="translate(-333.603 -180.026)" fill="#ff4c2f"/>
</svg>
