<svg xmlns="http://www.w3.org/2000/svg" width="77.623" height="74.851" viewBox="0 0 77.623 74.851">
  <g id="recurring" transform="translate(-32 -32)">
    <path id="Path_142" data-name="Path 142" d="M32,448h77.623v2.772H32Z" transform="translate(0 -343.921)" fill="#ff4c2f"/>
    <path id="Path_143" data-name="Path 143" d="M355.041,272h-4.93l-2.911,3.881,3.3,2.475Z" transform="translate(-260.586 -198.416)" fill="#ff4c2f"/>
    <path id="Path_144" data-name="Path 144" d="M349.189,272l-6.516,9.122a1.386,1.386,0,0,1-1.96.3L336,277.891v16.287h18.02a1.386,1.386,0,0,1,1.386,1.386,6.894,6.894,0,0,1-1.39,4.158h4.162V278.931A6.938,6.938,0,0,0,351.247,272Z" transform="translate(-251.327 -198.416)" fill="#ff4c2f"/>
    <path id="Path_145" data-name="Path 145" d="M337.386,247.624H336v6.006l2.772-3.7v-2.389a12.543,12.543,0,0,1-1.386.079Z" transform="translate(-251.327 -178.198)" fill="#ff4c2f"/>
    <path id="Path_146" data-name="Path 146" d="M294.178,142.931V136H272v6.931a9.585,9.585,0,0,0,1.741,5.545h2.417a6.94,6.94,0,0,1,6.35,4.158h1.967A9.714,9.714,0,0,0,294.178,142.931Zm-18.02,0a1.386,1.386,0,1,1,1.386-1.386A1.386,1.386,0,0,1,276.158,142.931Zm13.861,0a1.386,1.386,0,1,1,1.386-1.386A1.386,1.386,0,0,1,290.019,142.931Z" transform="translate(-198.416 -85.98)" fill="#ff4c2f"/>
    <path id="Path_147" data-name="Path 147" d="M177.386,287.494a4.158,4.158,0,0,1,1.386,8.078v1.507a8.315,8.315,0,0,0,0-16.4v1.507a4.165,4.165,0,0,1,2.772,3.919,1.386,1.386,0,0,1-2.772,0,1.386,1.386,0,1,0-1.386,1.386Z" transform="translate(-119.05 -205.594)" fill="#ff4c2f"/>
    <path id="Path_148" data-name="Path 148" d="M142.931,297.075v-1.507a4.165,4.165,0,0,1-2.772-3.919,1.386,1.386,0,1,1,2.772,0,1.386,1.386,0,1,0,1.386-1.386,4.158,4.158,0,0,1-1.386-8.078v-1.507a8.315,8.315,0,0,0,0,16.4Z" transform="translate(-85.98 -205.589)" fill="#ff4c2f"/>
    <path id="Path_149" data-name="Path 149" d="M230.846,62.495a12.519,12.519,0,0,1-1.3-5.545V48.634a1.386,1.386,0,0,1,1.386-1.386H233.7V43.089a1.386,1.386,0,0,1,2.772,0v4.158h2.772V43.089a1.386,1.386,0,0,1,2.772,0v4.158h2.772V43.089a1.386,1.386,0,0,1,2.772,0v4.158h2.772V43.089a1.386,1.386,0,1,1,2.772,0v4.158h2.772a1.386,1.386,0,0,1,1.386,1.386V56.95a12.5,12.5,0,0,1-8.317,11.76v2.1h4.158a9.911,9.911,0,0,0,9.7-10.085V50.689c0-10.305-8.084-18.689-18.02-18.689H242.02C232.084,32,224,40.384,224,50.689V60.726a10.561,10.561,0,0,0,.149,1.771Z" transform="translate(-158.733)" fill="#ff4c2f"/>
    <path id="Path_150" data-name="Path 150" d="M345.768,416H329.233a6.9,6.9,0,0,1-1.25,2.772h13.864A4.166,4.166,0,0,0,345.768,416Z" transform="translate(-244.699 -317.466)" fill="#ff4c2f"/>
    <path id="Path_151" data-name="Path 151" d="M52.158,260.039H90.97a4.163,4.163,0,0,0,4.158-4.158V228.158A4.163,4.163,0,0,0,90.97,224H52.158A4.163,4.163,0,0,0,48,228.158v27.723A4.163,4.163,0,0,0,52.158,260.039Zm19.406-29.109A11.089,11.089,0,1,1,60.475,242.02a11.089,11.089,0,0,1,11.089-11.089Z" transform="translate(-13.228 -158.733)" fill="#ff4c2f"/>
  </g>
</svg>
