<svg xmlns="http://www.w3.org/2000/svg" width="76.474" height="90.992" viewBox="0 0 76.474 90.992">
  <g id="reimbursements-money" transform="translate(-0.359)">
    <path id="Path_235" data-name="Path 235" d="M104.008,139.976a19.484,19.484,0,1,0,19.484-19.484A19.484,19.484,0,0,0,104.008,139.976Zm19.484,1.231a6.4,6.4,0,0,1-1.626-12.6v-1.647a1.35,1.35,0,0,1,2.7,0v1.565a6.339,6.339,0,0,1,5.28,6.29,1.334,1.334,0,1,1-2.669,0,3.692,3.692,0,1,0-3.688,3.7,6.392,6.392,0,0,1,1.076,12.687V152.8a1.35,1.35,0,1,1-2.7,0v-1.692a6.463,6.463,0,0,1-4.813-6.207,1.366,1.366,0,1,1,2.732,0,3.7,3.7,0,0,0,3.3,3.673,1.409,1.409,0,0,1,.211-.017,1.361,1.361,0,0,1,.3.035,3.694,3.694,0,0,0-.107-7.387Zm0,0" transform="translate(-83.655 -97.25)" fill="#ff4c2f"/>
    <path id="Path_236" data-name="Path 236" d="M122.672,355.449l-.032.016-12.534,5.922a9.686,9.686,0,0,1,.175,2.107,1.35,1.35,0,0,1-1.349,1.313h-.038l-18.345-.5a1.351,1.351,0,1,1,.074-2.7l16.862.464a6.962,6.962,0,0,0-6.659-5.785l-11.159-.307a14.692,14.692,0,0,1-6.323-1.634l-1.136-.588a17.154,17.154,0,0,0-17.511.986l-.447,16.234,1.918-1.027a8.34,8.34,0,0,1,6.218-.68l18.938,5.316a17.688,17.688,0,0,0,10.838-1.212L128.4,356.4a4.907,4.907,0,0,0-5.727-.949Zm0,0" transform="translate(-51.566 -283.949)" fill="#ff4c2f"/>
    <path id="Path_237" data-name="Path 237" d="M.359,364.7l.665-24.153,9.538.263L9.9,364.967Zm0,0" transform="translate(0 -274.861)" fill="#ff4c2f"/>
    <path id="Path_238" data-name="Path 238" d="M200.287,16.01V1.35a1.35,1.35,0,1,0-2.7,0V16.01a1.35,1.35,0,1,0,2.7,0Zm0,0" transform="translate(-159.183)" fill="#ff4c2f"/>
    <path id="Path_239" data-name="Path 239" d="M260.286,48.294V41.35a1.35,1.35,0,1,0-2.7,0v6.944a1.35,1.35,0,1,0,2.7,0Zm0,0" transform="translate(-207.609 -32.284)" fill="#ff4c2f"/>
    <path id="Path_240" data-name="Path 240" d="M140.287,48.294V41.35a1.35,1.35,0,1,0-2.7,0v6.944a1.35,1.35,0,1,0,2.7,0Zm0,0" transform="translate(-110.756 -32.284)" fill="#ff4c2f"/>
  </g>
</svg>
