<svg xmlns="http://www.w3.org/2000/svg" width="53.613" height="61" viewBox="0 0 53.613 61">
  <g id="salary-after-increase" transform="translate(0 0)">
    <path id="Path_54" data-name="Path 54" d="M152.784,10.842h1.787v3.693a1.786,1.786,0,0,0,1.787,1.787h7.148a1.786,1.786,0,0,0,1.787-1.787V10.842h1.787a1.787,1.787,0,0,0,1.263-3.051L161.2.523a1.787,1.787,0,0,0-2.527,0L151.52,7.791a1.787,1.787,0,0,0,1.264,3.051Z" transform="translate(-136.7 0)" fill="#ff4c2f"/>
    <path id="Path_55" data-name="Path 55" d="M255.3,272a14.3,14.3,0,1,0,14.3,14.3A14.3,14.3,0,0,0,255.3,272Zm2.995,20.728a6.728,6.728,0,0,1-1.208.461v.494a1.787,1.787,0,0,1-3.574,0v-.438a5.681,5.681,0,0,1-2.025-.943,1.787,1.787,0,1,1,2.145-2.859,3.225,3.225,0,0,0,3.065.088c.392-.2.6-.432.6-.554,0-.214,0-.247-.238-.374a8.486,8.486,0,0,0-2.088-.55,10.724,10.724,0,0,1-3.119-.911,3.8,3.8,0,0,1-2.129-3.527,4.219,4.219,0,0,1,2.576-3.752,6.731,6.731,0,0,1,1.211-.463v-.491a1.787,1.787,0,0,1,3.574,0v.438a5.683,5.683,0,0,1,2.025.943,1.787,1.787,0,0,1-2.145,2.859,3.228,3.228,0,0,0-3.068-.089c-.394.2-.6.428-.6.555,0,.214,0,.247.238.374a8.487,8.487,0,0,0,2.088.55,10.727,10.727,0,0,1,3.119.911,3.8,3.8,0,0,1,2.129,3.527A4.22,4.22,0,0,1,258.291,292.728Z" transform="translate(-215.98 -239.594)" fill="#ff4c2f"/>
    <path id="Path_56" data-name="Path 56" d="M92.787,172.361h32.168a1.787,1.787,0,0,0,1.787-1.787v-1.787A1.787,1.787,0,0,0,124.955,167H92.787A1.787,1.787,0,0,0,91,168.787v1.787A1.787,1.787,0,0,0,92.787,172.361Z" transform="translate(-83.852 -147.104)" fill="#ff4c2f"/>
    <path id="Path_57" data-name="Path 57" d="M61,468.787v1.787a1.787,1.787,0,0,0,1.787,1.787H86.13A17.908,17.908,0,0,1,81.357,467H62.787A1.787,1.787,0,0,0,61,468.787Z" transform="translate(-57.426 -411.361)" fill="#ff4c2f"/>
    <path id="Path_58" data-name="Path 58" d="M61,318.787v1.787a1.787,1.787,0,0,0,1.787,1.787H79.232A17.641,17.641,0,0,1,81.357,317H62.787A1.787,1.787,0,0,0,61,318.787Z" transform="translate(-57.426 -279.232)" fill="#ff4c2f"/>
    <path id="Path_59" data-name="Path 59" d="M32.787,397.361H53.358A17.622,17.622,0,0,1,52.445,392H32.787A1.787,1.787,0,0,0,31,393.787v1.787A1.787,1.787,0,0,0,32.787,397.361Z" transform="translate(-31 -345.297)" fill="#ff4c2f"/>
    <path id="Path_60" data-name="Path 60" d="M32.787,247.361h24.8A17.8,17.8,0,0,1,70.316,242H32.787A1.787,1.787,0,0,0,31,243.787v1.787A1.787,1.787,0,0,0,32.787,247.361Z" transform="translate(-31 -213.168)" fill="#ff4c2f"/>
  </g>
</svg>
