<svg xmlns="http://www.w3.org/2000/svg" width="63.736" height="60.701" viewBox="0 0 63.736 60.701">
  <g id="salary-mothly" transform="translate(0 -11.684)">
    <g id="Group_67" data-name="Group 67" transform="translate(23.976 47.445)">
      <g id="Group_66" data-name="Group 66">
        <path id="Path_33" data-name="Path 33" d="M184.576,286.983l1.652,1.1a11.221,11.221,0,0,0,12.481,0l1.652-1.1Z" transform="translate(-184.576 -286.983)" fill="#ff4c2f"/>
      </g>
    </g>
    <g id="Group_69" data-name="Group 69" transform="translate(0 27.467)">
      <g id="Group_68" data-name="Group 68" transform="translate(0 0)">
        <path id="Path_34" data-name="Path 34" d="M60.893,135.153l-2.7-1.962v10.278c0,.044-.022.083-.025.127a1.386,1.386,0,0,1-.055.28,1.268,1.268,0,0,1-.1.238,1.467,1.467,0,0,1-.344.416c-.033.028-.055.066-.091.091L39.652,156.574a13.981,13.981,0,0,1-15.557,0L6.163,144.622c-.039-.025-.058-.064-.091-.091a1.252,1.252,0,0,1-.2-.2,1.511,1.511,0,0,1-.144-.213,1.264,1.264,0,0,1-.1-.238,1.356,1.356,0,0,1-.055-.28,1.026,1.026,0,0,1-.025-.127V133.191l-2.7,1.962A7.008,7.008,0,0,0,0,140.823v30.358a6.82,6.82,0,0,0,6.687,6.928H57.05a6.818,6.818,0,0,0,6.687-6.928V140.823A7,7,0,0,0,60.893,135.153Z" transform="translate(0 -133.191)" fill="#ff4c2f"/>
      </g>
    </g>
    <g id="Group_71" data-name="Group 71" transform="translate(19.988 11.684)">
      <g id="Group_70" data-name="Group 70" transform="translate(0 0)">
        <path id="Path_35" data-name="Path 35" d="M174.14,14.418a14.218,14.218,0,0,0-16.765,0l-3.5,2.544h23.134Z" transform="translate(-153.877 -11.684)" fill="#ff4c2f"/>
      </g>
    </g>
    <g id="Group_73" data-name="Group 73" transform="translate(33.254 33.805)">
      <g id="Group_72" data-name="Group 72" transform="translate(0 0)">
        <path id="Path_36" data-name="Path 36" d="M256,181.98V184.4c1.84-.283,2.771-1.028,2.771-1.25C258.771,183.144,258.73,182.476,256,181.98Z" transform="translate(-256 -181.98)" fill="#ff4c2f"/>
      </g>
    </g>
    <g id="Group_75" data-name="Group 75" transform="translate(27.711 28.177)">
      <g id="Group_74" data-name="Group 74">
        <path id="Path_37" data-name="Path 37" d="M213.333,139.907c0,.008.042.673,2.771,1.169v-2.425C214.331,138.926,213.333,139.63,213.333,139.907Z" transform="translate(-213.333 -138.652)" fill="#ff4c2f"/>
      </g>
    </g>
    <g id="Group_77" data-name="Group 77" transform="translate(8.313 19.733)">
      <g id="Group_76" data-name="Group 76">
        <path id="Path_38" data-name="Path 38" d="M109.724,73.649H65.386A1.386,1.386,0,0,0,64,75.035V90.919s13.235,7.671,12.47,7.671H98.639c.249,0,12.47-7.671,12.47-7.671V75.035A1.384,1.384,0,0,0,109.724,73.649ZM94.483,88.89c0,2.084-2.3,3.713-5.542,4.079v1.466a1.386,1.386,0,0,1-2.771,0V92.972c-3.043-.341-5.287-1.8-5.531-3.73A1.387,1.387,0,0,1,83.39,88.9c.039.321,1.059.992,2.782,1.255V87.325c-2.264-.352-5.542-1.2-5.542-3.977,0-2.081,2.3-3.713,5.542-4.076V77.806a1.386,1.386,0,0,1,2.771,0v1.463c3.043.341,5.287,1.8,5.531,3.73a1.387,1.387,0,1,1-2.752.346c-.039-.321-1.059-.992-2.782-1.255v2.824C91.2,85.268,94.483,86.119,94.483,88.89Zm9.7-6.928H98.639a1.386,1.386,0,1,1,0-2.771h5.542a1.386,1.386,0,1,1,0,2.771Z" transform="translate(-64 -73.649)" fill="#ff4c2f"/>
      </g>
    </g>
  </g>
</svg>
