<svg xmlns="http://www.w3.org/2000/svg" width="58.896" height="61" viewBox="0 0 58.896 61">
  <g id="salary-yearly" transform="translate(-32 -24)">
    <path id="Path_44" data-name="Path 44" d="M86.69,168H32v37.862H86.69ZM59.345,201.655a14.724,14.724,0,1,1,14.724-14.724A14.724,14.724,0,0,1,59.345,201.655Z" transform="translate(0 -125.069)" fill="#ff4c2f"/>
    <path id="Path_45" data-name="Path 45" d="M102.69,137.431a1.052,1.052,0,0,1-1.052,1.052H48v2.1h56.793V88h-2.1Z" transform="translate(-13.897 -55.586)" fill="#ff4c2f"/>
    <path id="Path_46" data-name="Path 46" d="M156.621,216a12.621,12.621,0,1,0,12.621,12.621A12.621,12.621,0,0,0,156.621,216Zm0,11.569c2.9,0,5.259,1.887,5.259,4.207,0,2.032-1.809,3.731-4.207,4.122v1.136a1.052,1.052,0,0,1-2.1,0V235.9c-2.4-.391-4.207-2.09-4.207-4.122a1.052,1.052,0,1,1,2.1,0c0,1.14,1.445,2.1,3.155,2.1s3.155-.963,3.155-2.1-1.445-2.1-3.155-2.1c-2.9,0-5.259-1.887-5.259-4.207,0-2.032,1.809-3.731,4.207-4.122v-1.136a1.052,1.052,0,0,1,2.1,0v1.136c2.4.391,4.207,2.09,4.207,4.122a1.052,1.052,0,0,1-2.1,0c0-1.14-1.445-2.1-3.155-2.1s-3.155.963-3.155,2.1S154.91,227.569,156.621,227.569Z" transform="translate(-97.276 -166.759)" fill="#ff4c2f"/>
    <path id="Path_47" data-name="Path 47" d="M76.172,30.31V27.155a1.052,1.052,0,1,1,2.1,0v1.052h2.1V27.155a3.155,3.155,0,1,0-6.31,0V30.31h-6.31V27.155a1.052,1.052,0,1,1,2.1,0v1.052h2.1V27.155a3.155,3.155,0,0,0-6.31,0V30.31H48.828V27.155a1.052,1.052,0,1,1,2.1,0v1.052h2.1V27.155a3.155,3.155,0,1,0-6.31,0V30.31h-6.31V27.155a1.052,1.052,0,1,1,2.1,0v1.052h2.1V27.155a3.155,3.155,0,1,0-6.31,0V30.31H32V40.828H86.69V30.31Z" fill="#ff4c2f"/>
  </g>
</svg>
