<svg xmlns="http://www.w3.org/2000/svg" width="63.459" height="64.471" viewBox="0 0 63.459 64.471">
  <g id="sick-leave-up" transform="translate(-4.004)">
    <path id="Path_83" data-name="Path 83" d="M65.566,32.361a1.9,1.9,0,0,0-1.9,1.9v15.3h-4.7a5.946,5.946,0,0,0-5.537-8.09H28.022V7.838H38.388v4.3H36.239a1.9,1.9,0,0,0-1.9,1.9V24.145a1.9,1.9,0,0,0,1.9,1.9h8.09a1.9,1.9,0,0,0,1.9-1.9V14.032a1.9,1.9,0,0,0-1.9-1.9H42.18V5.941a1.9,1.9,0,0,0-1.9-1.9H28.022V1.9a1.9,1.9,0,1,0-3.792,0V41.463h-4.7a5.946,5.946,0,0,0-5.537-8.09H7.8V24.145a1.9,1.9,0,1,0-3.792,0V62.574a1.9,1.9,0,1,0,3.792,0V53.346H24.23v4.082l-6.124,3.5a1.9,1.9,0,0,0,.943,3.543c.685,0,.471.017,7.077-3.758,6.8,3.888,6.4,3.758,7.077,3.758a1.9,1.9,0,0,0,.943-3.543l-6.124-3.5V53.346H63.67v9.228a1.9,1.9,0,1,0,3.792,0V34.258A1.9,1.9,0,0,0,65.566,32.361Z" fill="#ff4c2f"/>
  </g>
</svg>
