<svg xmlns="http://www.w3.org/2000/svg" width="60.002" height="60" viewBox="0 0 60.002 60">
  <g id="sick-leave" transform="translate(0 -0.001)">
    <path id="Path_66" data-name="Path 66" d="M11.625,20.5a1.86,1.86,0,0,1-1.325-.55L6.55,16.2A1.876,1.876,0,1,1,9.2,13.549l3.75,3.75a1.876,1.876,0,0,1-1.328,3.2Z" transform="translate(9.001 19.499)" fill="#ff4c2f"/>
    <path id="Path_67" data-name="Path 67" d="M7.875,20.5A1.876,1.876,0,0,1,6.55,17.3l3.75-3.75A1.876,1.876,0,1,1,12.952,16.2L9.2,19.951A1.87,1.87,0,0,1,7.875,20.5Z" transform="translate(9.001 19.499)" fill="#ff4c2f"/>
    <path id="Path_68" data-name="Path 68" d="M18.625,20.5a1.86,1.86,0,0,1-1.325-.55L13.55,16.2A1.876,1.876,0,1,1,16.2,13.549l3.75,3.75a1.876,1.876,0,0,1-1.328,3.2Z" transform="translate(19.501 19.499)" fill="#ff4c2f"/>
    <path id="Path_69" data-name="Path 69" d="M14.875,20.5a1.876,1.876,0,0,1-1.325-3.2l3.75-3.75A1.876,1.876,0,1,1,19.952,16.2l-3.75,3.75A1.87,1.87,0,0,1,14.875,20.5Z" transform="translate(19.501 19.499)" fill="#ff4c2f"/>
    <path id="Path_70" data-name="Path 70" d="M25.124,23.75a1.87,1.87,0,0,1-1.43-.663l-1.16-1.368a1.19,1.19,0,0,0-.893-.47h0a1.173,1.173,0,0,0-.888.47,4.972,4.972,0,0,1-7.505,0,1.177,1.177,0,0,0-.888-.47h0a1.19,1.19,0,0,0-.893.47l-1.158,1.368A1.877,1.877,0,1,1,7.444,20.66L8.6,19.293A4.96,4.96,0,0,1,12.357,17.5h0a4.945,4.945,0,0,1,3.75,1.8,1.087,1.087,0,0,0,1.783,0,4.945,4.945,0,0,1,3.75-1.8h0a4.953,4.953,0,0,1,3.75,1.8l1.163,1.368a1.878,1.878,0,0,1-.218,2.645,1.9,1.9,0,0,1-1.215.443Z" transform="translate(10.501 26.25)" fill="#ff4c2f"/>
    <path id="Path_71" data-name="Path 71" d="M20.755,15a1.875,1.875,0,0,1-1.068-3.42l.518-.358a1.1,1.1,0,0,0,.543-1.028,1.228,1.228,0,0,0-.778-.99,4.951,4.951,0,0,1-2.953-4.078A4.851,4.851,0,0,1,19.17.686l.515-.358a1.877,1.877,0,0,1,2.13,3.09l-.518.358A1.1,1.1,0,0,0,20.755,4.8a1.228,1.228,0,0,0,.778.99,4.951,4.951,0,0,1,2.953,4.078,4.851,4.851,0,0,1-2.153,4.44l-.515.358a1.881,1.881,0,0,1-1.063.33Z" transform="translate(25.499 0)" fill="#ff4c2f"/>
    <path id="Path_72" data-name="Path 72" d="M16.755,15a1.875,1.875,0,0,1-1.068-3.42l.518-.358a1.1,1.1,0,0,0,.543-1.028,1.228,1.228,0,0,0-.778-.99,4.951,4.951,0,0,1-2.953-4.078A4.851,4.851,0,0,1,15.17.686l.515-.358a1.877,1.877,0,0,1,2.13,3.09l-.518.358A1.1,1.1,0,0,0,16.755,4.8a1.228,1.228,0,0,0,.778.99,4.951,4.951,0,0,1,2.953,4.078,4.851,4.851,0,0,1-2.153,4.44l-.515.358a1.881,1.881,0,0,1-1.063.33Z" transform="translate(19.499 0)" fill="#ff4c2f"/>
    <path id="Path_73" data-name="Path 73" d="M24.755,15a1.875,1.875,0,0,1-1.068-3.42l.518-.358a1.1,1.1,0,0,0,.543-1.028,1.228,1.228,0,0,0-.778-.99,4.951,4.951,0,0,1-2.953-4.078A4.851,4.851,0,0,1,23.17.686l.515-.358a1.877,1.877,0,1,1,2.13,3.09l-.518.358A1.1,1.1,0,0,0,24.755,4.8a1.228,1.228,0,0,0,.778.99,4.951,4.951,0,0,1,2.953,4.078,4.851,4.851,0,0,1-2.153,4.44l-.515.358a1.881,1.881,0,0,1-1.063.33Z" transform="translate(31.499 0)" fill="#ff4c2f"/>
    <path id="Path_74" data-name="Path 74" d="M50,25.326v-4.35a16.606,16.606,0,0,0-1.075-6.05,6.6,6.6,0,0,1-2.675.575,6.887,6.887,0,0,1-4.9-2.1,7.3,7.3,0,0,1-.7.525l-.5.35A6.876,6.876,0,0,1,29.726,6.45,10.047,10.047,0,0,1,27.9,3.025,2.151,2.151,0,0,0,27.5,3C16.675,3,5,8.625,5,20.975v4.35a6.824,6.824,0,0,0,1,13.35C8.55,47.051,16.1,55.5,27.5,55.5S46.426,47.051,49,38.676a6.824,6.824,0,0,0,1-13.35Zm-5,6.7A17.143,17.143,0,0,1,44.551,36c-1.625,7-7.675,14.5-17.05,14.5S12.075,43,10.45,36.026a17.517,17.517,0,0,1-.45-4v-4.75l1.275-.25A23.868,23.868,0,0,0,24,19.95a35.964,35.964,0,0,0,16.65,6.9l4.35.625Z" transform="translate(0 4.499)" fill="#ff4c2f"/>
  </g>
</svg>
