<svg xmlns="http://www.w3.org/2000/svg" width="72.404" height="60.701" viewBox="0 0 72.404 60.701">
  <g id="sick-leave-hp" transform="translate(-12.865 -52.167)">
    <path id="Path_75" data-name="Path 75" d="M53.427,87.509l5.652-.176A1.708,1.708,0,0,0,60.6,84.967a.722.722,0,0,0-.038-.077l-4.41-7.864c-.03-.864-.137-3.993-.17-4.358a22.427,22.427,0,0,0-23.3-20.48q-.29.012-.577.031a20.466,20.466,0,0,0-16.7,10.776,20.868,20.868,0,0,0,.139,20.23c.2.457,2.455,5.643,2.727,7.83.992,7.96-1.964,20.77-1.994,20.9a.744.744,0,0,0,.725.914h.023l20.19-.63a.744.744,0,0,0,.7-.585l1.589-7.271a2.363,2.363,0,0,1,2.248-1.861c3.819-.1,6.062-.16,6.315-.16a5.565,5.565,0,0,0,5.552-5.731Z" transform="translate(0 0)" fill="#ff4c2f"/>
    <path id="Path_76" data-name="Path 76" d="M321.542,334.827H300.966a.744.744,0,1,0,0,1.489h20.572a1.913,1.913,0,0,1,1.35.564,1.391,1.391,0,0,1,0,1.967.964.964,0,0,1-1.363,0,.622.622,0,0,1-.138-.67.745.745,0,0,0-1.384-.551,2.111,2.111,0,0,0,.469,2.274,2.456,2.456,0,0,0,3.469,0,2.88,2.88,0,0,0,0-4.073A3.4,3.4,0,0,0,321.542,334.827Z" transform="translate(-244.57 -240.573)" fill="#ff4c2f"/>
    <path id="Path_77" data-name="Path 77" d="M335.647,355.761h-9.778a.744.744,0,0,0,0,1.489h9.774a1.367,1.367,0,0,1,.964.4.951.951,0,0,1,0,1.344.613.613,0,0,1-.865,0,.336.336,0,0,1-.1-.2.745.745,0,1,0-1.481.155,1.835,1.835,0,0,0,.526,1.1,2.1,2.1,0,0,0,2.971,0,2.443,2.443,0,0,0,0-3.45,2.849,2.849,0,0,0-2.013-.837Z" transform="translate(-265.765 -258.39)" fill="#ff4c2f"/>
    <path id="Path_78" data-name="Path 78" d="M356.5,275.516h10.092a2.846,2.846,0,0,0,2.009-.839,2.44,2.44,0,0,0,0-3.45,2.1,2.1,0,0,0-2.971,0,1.823,1.823,0,0,0-.493,1.686.744.744,0,1,0,1.455-.318.34.34,0,0,1,.092-.315.612.612,0,0,1,.865,0,.951.951,0,0,1,0,1.345,1.363,1.363,0,0,1-.96.4H356.5a.744.744,0,1,0,0,1.489Z" transform="translate(-291.834 -185.919)" fill="#ff4c2f"/>
    <path id="Path_79" data-name="Path 79" d="M342.44,283.461a2.608,2.608,0,0,0-3.683,0,2.235,2.235,0,0,0,0,3.157.744.744,0,0,0,1.053-1.053.744.744,0,0,1,0-1.051,1.117,1.117,0,0,1,1.578,0,1.582,1.582,0,0,1,0,2.235,2.146,2.146,0,0,1-1.512.633H316.825a.744.744,0,1,0,0,1.489h23.053a3.629,3.629,0,0,0,2.561-1.069,3.073,3.073,0,0,0,0-4.34Z" transform="translate(-258.068 -196.207)" fill="#ff4c2f"/>
    <path id="Path_80" data-name="Path 80" d="M347,377.933a1.409,1.409,0,1,0,1.409,1.409A1.409,1.409,0,0,0,347,377.933Z" transform="translate(-283.186 -277.261)" fill="#ff4c2f"/>
    <path id="Path_81" data-name="Path 81" d="M389.608,264.217A1.609,1.609,0,1,0,388,262.608,1.609,1.609,0,0,0,389.608,264.217Z" transform="translate(-319.278 -177.738)" fill="#ff4c2f"/>
    <path id="Path_82" data-name="Path 82" d="M424.157,384.463a1.757,1.757,0,1,0,1.757,1.757A1.757,1.757,0,0,0,424.157,384.463Z" transform="translate(-348.556 -282.818)" fill="#ff4c2f"/>
    <circle id="Ellipse_15" data-name="Ellipse 15" cx="1.256" cy="1.256" r="1.256" transform="translate(81.759 94.254)" fill="#ff4c2f"/>
  </g>
</svg>
