<svg xmlns="http://www.w3.org/2000/svg" width="55.995" height="56" viewBox="0 0 55.995 56">
  <g id="total-servicec-days" transform="translate(-0.024)">
    <g id="Group_226" data-name="Group 226" transform="translate(22.994)">
      <g id="Group_225" data-name="Group 225">
        <path id="Path_195" data-name="Path 195" d="M216.7,0a6.757,6.757,0,0,0-6.672,6.672,6.757,6.757,0,0,0,6.672,6.672A6.673,6.673,0,0,0,216.7,0Z" transform="translate(-210.029)" fill="#ff4c2f"/>
      </g>
    </g>
    <g id="Group_228" data-name="Group 228" transform="translate(19.712 13.344)">
      <g id="Group_227" data-name="Group 227">
        <path id="Path_196" data-name="Path 196" d="M197.266,122a9.784,9.784,0,0,1-7.284,3.281A10.023,10.023,0,0,1,182.589,122a9.768,9.768,0,0,0-2.56,6.562V130.2a1.64,1.64,0,0,0,1.641,1.641h16.516a1.64,1.64,0,0,0,1.641-1.641v-1.641A9.768,9.768,0,0,0,197.266,122Z" transform="translate(-180.029 -122)" fill="#ff4c2f"/>
      </g>
    </g>
    <g id="Group_230" data-name="Group 230" transform="translate(0.024 31.777)">
      <g id="Group_229" data-name="Group 229">
        <path id="Path_197" data-name="Path 197" d="M15.875,309.111,7.514,292.349a3.281,3.281,0,0,0-4.393-1.476L.937,291.956a1.642,1.642,0,0,0-.739,2.2l9.844,19.687a1.642,1.642,0,0,0,2.2.737l2.157-1.069A3.281,3.281,0,0,0,15.875,309.111Z" transform="translate(-0.024 -290.532)" fill="#ff4c2f"/>
      </g>
    </g>
    <g id="Group_232" data-name="Group 232" transform="translate(9.758 25.865)">
      <g id="Group_231" data-name="Group 231">
        <path id="Path_198" data-name="Path 198" d="M133.938,237.706a3.271,3.271,0,0,0-4.331.427l-8.969,11.025a3.966,3.966,0,0,1-2.428,1.05h-7.645a1.641,1.641,0,1,1,0-3.281h6.562a3.281,3.281,0,1,0,0-6.562h-8.6c-.818,0-1.225-.519-1.87-1.083a11.416,11.416,0,0,0-10.185-2.493,11.969,11.969,0,0,0-5.037,2.515l-.049-.039-2.373,2.088,9.326,18.7h18.785A9.884,9.884,0,0,0,125,256.114l9.625-13.781A3.306,3.306,0,0,0,133.938,237.706Z" transform="translate(-89.016 -236.479)" fill="#ff4c2f"/>
      </g>
    </g>
  </g>
</svg>
