<svg id="total-bounes" xmlns="http://www.w3.org/2000/svg" width="61" height="61" viewBox="0 0 61 61">
  <path id="Path_48" data-name="Path 48" d="M191.843,1.819H189c-.179,0-.2,0-.611-.4a4.115,4.115,0,0,0-6.217,0c-.409.4-.432.4-.611.4s-.2,0-.61-.4a4.114,4.114,0,0,0-6.216,0c-.409.4-.432.4-.61.4h-2.783l2.705,5.9H189Z" transform="translate(-150.929)" fill="#ff4c2f"/>
  <path id="Path_49" data-name="Path 49" d="M127.73,183.139l6.422-10.714a5.884,5.884,0,0,1,3.114-2.522l.358-6.715c-2.579-3.625-6.232-6.1-10.629-8.315H111.3c-4.431,2.209-8.113,4.69-10.708,8.343l.356,6.688a5.886,5.886,0,0,1,3.114,2.522l6.422,10.714a12.676,12.676,0,0,1,1.972,7.872,20.736,20.736,0,0,0,13.3-.018A12.677,12.677,0,0,1,127.73,183.139Zm-7.191-6.369v1.963h-2.494v-1.875a10.408,10.408,0,0,1-4.545-1.238l1.344-3.042a8.493,8.493,0,0,0,4.085,1.132c1.185,0,1.609-.248,1.609-.672,0-1.556-6.844-.3-6.844-4.917,0-2,1.45-3.679,4.351-4.085v-1.928h2.494V164a9.238,9.238,0,0,1,3.59,1.026l-1.256,3.024a7.637,7.637,0,0,0-3.449-.92c-1.22,0-1.609.354-1.609.778,0,1.486,6.844.248,6.844,4.811C124.661,174.629,123.281,176.292,120.54,176.769Z" transform="translate(-88.607 -136.42)" fill="#ff4c2f"/>
  <path id="Path_50" data-name="Path 50" d="M205.449,94.822H217.6V98.4H205.449Z" transform="translate(-180.972 -83.525)" fill="#ff4c2f"/>
  <path id="Path_51" data-name="Path 51" d="M18.954,175.7l-.033-.053-6.43-10.727a2.4,2.4,0,0,0-4.124,2.467l6.082,10.189-3.076,1.82L5.331,169.18a5.736,5.736,0,0,1-.737-4.433,6.03,6.03,0,0,1,2.795-3.774,6.173,6.173,0,0,1,1.478-.631L8.219,148.2a4.086,4.086,0,0,0-8.167.206L0,167.818l8.128,13.988-2.382,6.331H17.7l2.151-4.154A9.306,9.306,0,0,0,18.954,175.7Z" transform="translate(0 -127.136)" fill="#ff4c2f"/>
  <path id="Path_52" data-name="Path 52" d="M360.925,167.818l-.053-19.41a4.086,4.086,0,0,0-8.167-.206l-.647,12.141a6.164,6.164,0,0,1,1.478.631,6.03,6.03,0,0,1,2.795,3.774,5.735,5.735,0,0,1-.737,4.433l-6.042,10.214-3.076-1.82,6.082-10.189a2.4,2.4,0,0,0-4.124-2.467L342,175.645l-.033.053a9.306,9.306,0,0,0-.9,8.285l2.151,4.154h11.954l-2.382-6.331Z" transform="translate(-299.925 -127.137)" fill="#ff4c2f"/>
</svg>
