<svg id="total-deduction" xmlns="http://www.w3.org/2000/svg" width="90.992" height="90.992" viewBox="0 0 90.992 90.992">
  <path id="Path_233" data-name="Path 233" d="M28.435,0A28.435,28.435,0,1,0,56.87,28.435,28.465,28.465,0,0,0,28.435,0ZM26.994,25.591h2.881a8.047,8.047,0,0,1,1.4,15.969v2.984a2.843,2.843,0,1,1-5.687,0V41.7H21.8a2.843,2.843,0,1,1,0-5.687h8.075a2.37,2.37,0,0,0,0-4.739H26.994a8.047,8.047,0,0,1-1.4-15.969V12.322a2.843,2.843,0,1,1,5.687,0v2.843H35.07a2.843,2.843,0,0,1,0,5.687H26.994a2.37,2.37,0,0,0,0,4.739Z" fill="#ff4c2f"/>
  <path id="Path_234" data-name="Path 234" d="M55.114,70.583a3.8,3.8,0,0,0-3.5-2.339H40.237V23.7A23.724,23.724,0,0,0,16.541,0a3.791,3.791,0,1,0,0,7.583A16.131,16.131,0,0,1,32.654,23.7V68.243H21.28a3.79,3.79,0,0,0-2.68,6.472L33.765,89.88a3.787,3.787,0,0,0,5.361,0L54.291,74.715a3.791,3.791,0,0,0,.823-4.133Z" transform="translate(35.589)" fill="#ff4c2f"/>
</svg>
