<svg id="user-icon" xmlns="http://www.w3.org/2000/svg" width="27.998" height="33.559" viewBox="0 0 27.998 33.559">
  <path id="Path_29" data-name="Path 29" d="M95.115,16.165A7.821,7.821,0,0,0,100.83,13.8,7.82,7.82,0,0,0,103.2,8.083a7.822,7.822,0,0,0-2.368-5.715,8.081,8.081,0,0,0-11.43,0,7.821,7.821,0,0,0-2.368,5.715A7.821,7.821,0,0,0,89.4,13.8,7.823,7.823,0,0,0,95.115,16.165Zm0,0" transform="translate(-81.327 0)" fill="#ff4c2f"/>
  <path id="Path_30" data-name="Path 30" d="M27.93,256.911a19.964,19.964,0,0,0-.272-2.12,16.706,16.706,0,0,0-.522-2.132,10.53,10.53,0,0,0-.876-1.988,7.5,7.5,0,0,0-1.322-1.722,5.827,5.827,0,0,0-1.9-1.193,6.561,6.561,0,0,0-2.424-.439,2.46,2.46,0,0,0-1.314.557c-.394.257-.854.554-1.368.882a7.842,7.842,0,0,1-1.771.78,6.876,6.876,0,0,1-4.332,0,7.823,7.823,0,0,1-1.769-.78c-.509-.325-.97-.622-1.37-.883a2.457,2.457,0,0,0-1.313-.557,6.553,6.553,0,0,0-2.423.439,5.822,5.822,0,0,0-1.9,1.193,7.5,7.5,0,0,0-1.321,1.722,10.551,10.551,0,0,0-.876,1.989,16.746,16.746,0,0,0-.521,2.132,19.9,19.9,0,0,0-.272,2.121C.022,257.554,0,258.22,0,258.893a5.572,5.572,0,0,0,1.655,4.216,5.958,5.958,0,0,0,4.265,1.556H22.078a5.956,5.956,0,0,0,4.264-1.556A5.57,5.57,0,0,0,28,258.893c0-.676-.023-1.343-.068-1.982Zm0,0" transform="translate(0 -231.106)" fill="#ff4c2f"/>
</svg>
