<svg xmlns="http://www.w3.org/2000/svg" width="145.491" height="174.387" viewBox="0 0 145.491 174.387">
  <g id="user-card-icon" transform="translate(0 0)">
    <path id="Path_223" data-name="Path 223" d="M129.034,84a40.64,40.64,0,0,0,29.7-12.305,40.639,40.639,0,0,0,12.3-29.7,40.646,40.646,0,0,0-12.305-29.7,41.992,41.992,0,0,0-59.394,0A40.642,40.642,0,0,0,87.032,42,40.639,40.639,0,0,0,99.338,71.7,40.65,40.65,0,0,0,129.034,84Zm0,0" transform="translate(-57.389)" fill="#ff4c2f"/>
    <path id="Path_224" data-name="Path 224" d="M145.138,297.175a103.743,103.743,0,0,0-1.413-11.019,86.818,86.818,0,0,0-2.71-11.079,54.721,54.721,0,0,0-4.554-10.332,38.989,38.989,0,0,0-6.868-8.95,30.28,30.28,0,0,0-9.865-6.2,34.1,34.1,0,0,0-12.594-2.279c-1.78,0-3.5.73-6.827,2.9-2.046,1.334-4.44,2.878-7.111,4.585a40.748,40.748,0,0,1-9.2,4.054,35.73,35.73,0,0,1-22.509,0,40.654,40.654,0,0,1-9.195-4.053c-2.646-1.691-5.041-3.234-7.118-4.587-3.321-2.165-5.044-2.9-6.824-2.9A34.051,34.051,0,0,0,25.756,249.6a30.254,30.254,0,0,0-9.867,6.2,38.995,38.995,0,0,0-6.865,8.949A54.828,54.828,0,0,0,4.47,275.079a87.022,87.022,0,0,0-2.709,11.077A103.38,103.38,0,0,0,.348,297.179c-.232,3.337-.349,6.8-.349,10.3,0,9.1,2.894,16.472,8.6,21.907,5.636,5.363,13.093,8.084,22.161,8.084h83.968c9.068,0,16.523-2.719,22.16-8.084,5.708-5.431,8.6-12.8,8.6-21.909,0-3.514-.12-6.98-.353-10.3Zm0,0" transform="translate(0 -163.081)" fill="#ff4c2f"/>
  </g>
</svg>
