<svg xmlns="http://www.w3.org/2000/svg" width="158.963" height="132.469" viewBox="0 0 158.963 132.469">
  <g id="work-days" transform="translate(0 -2)">
    <path id="Path_136" data-name="Path 136" d="M54.364,31.806a6.626,6.626,0,0,1-6.623-6.623V15.247H21.247v9.935A6.623,6.623,0,0,1,8,25.182V15.247A13.26,13.26,0,0,1,21.247,2H47.741A13.26,13.26,0,0,1,60.988,15.247v9.935A6.626,6.626,0,0,1,54.364,31.806Z" transform="translate(44.988)" fill="#ff4c2f"/>
    <path id="Path_137" data-name="Path 137" d="M84.184,36.524a13.643,13.643,0,0,1-4.7.795,14.513,14.513,0,0,1-5.1-.927L0,11.62V62.157A18.2,18.2,0,0,0,18.215,80.372H140.749a18.2,18.2,0,0,0,18.215-18.215V11.62Z" transform="translate(0 54.098)" fill="#ff4c2f"/>
    <path id="Path_138" data-name="Path 138" d="M158.963,23.215V38.382L81.071,64.346a4.9,4.9,0,0,1-3.179,0L0,38.382V23.215A18.2,18.2,0,0,1,18.215,5H140.749A18.2,18.2,0,0,1,158.963,23.215Z" transform="translate(0 16.87)" fill="#ff4c2f"/>
  </g>
</svg>
